<?xml version="1.0" encoding="UTF-8" standalone="no"?>
<!-- Generator: Adobe Illustrator 16.0.0, SVG Export Plug-In . SVG Version: 6.00 Build 0)  -->

<svg
   version="1.0"
   x="0px"
   y="0px"
   width="19px"
   height="19px"
   viewBox="0 0 19 19"
   enable-background="new 0 0 19 19"
   xml:space="preserve"
   id="svg15"
   sodipodi:docname="free image icon png vector.svg"
   inkscape:version="1.3.2 (091e20e, 2023-11-25, custom)"
   xmlns:inkscape="http://www.inkscape.org/namespaces/inkscape"
   xmlns:sodipodi="http://sodipodi.sourceforge.net/DTD/sodipodi-0.dtd"
   xmlns="http://www.w3.org/2000/svg"
   xmlns:svg="http://www.w3.org/2000/svg"
   xmlns:ns="&amp;ns_sfw;"><defs
   id="defs15" /><sodipodi:namedview
   id="namedview15"
   pagecolor="#ffffff"
   bordercolor="#000000"
   borderopacity="0.25"
   inkscape:showpageshadow="2"
   inkscape:pageopacity="0.0"
   inkscape:pagecheckerboard="0"
   inkscape:deskcolor="#d1d1d1"
   inkscape:zoom="32.210526"
   inkscape:cx="9.4844771"
   inkscape:cy="9.5"
   inkscape:window-width="1368"
   inkscape:window-height="850"
   inkscape:window-x="-6"
   inkscape:window-y="-6"
   inkscape:window-maximized="1"
   inkscape:current-layer="svg15" />
<metadata
   id="metadata1">
	<ns:sfw>
		<ns:slices />
		<ns:sliceSourceBounds
   height="17.326"
   width="37.436"
   bottomLeftOrigin="true"
   x="255"
   y="-276" />
		<ns:optimizationSettings>
			<ns:targetSettings
   fileFormat="PNG24Format"
   targetSettingsID="0">
				<ns:PNG24Format
   transparency="true"
   filtered="false"
   noMatteColor="false"
   matteColor="#FFFFFF"
   interlaced="false">
					</ns:PNG24Format>
			</ns:targetSettings>
		</ns:optimizationSettings>
	</ns:sfw>
</metadata>
<g
   id="credit">
	<g
   id="g14">
		<g
   id="g8">
			<path
   d="M25.582,2.561V0.876h0.707h0.064c0.189,0,0.319,0.036,0.389,0.109c0.068,0.073,0.104,0.211,0.104,0.411     c0,0.192-0.035,0.324-0.107,0.394s-0.207,0.104-0.405,0.104l-0.075,0.002h-0.485v0.664H25.582z M25.772,1.735h0.45     c0.188,0,0.309-0.019,0.361-0.058s0.08-0.127,0.08-0.267c0-0.163-0.018-0.266-0.054-0.309c-0.036-0.044-0.12-0.065-0.255-0.065     l-0.072-0.001h-0.511V1.735z"
   id="path1" />
			<path
   d="M27.263,0.876v1.685h-0.19V0.876H27.263z"
   id="path2" />
			<path
   d="M28.867,0.876l-0.539,0.813l0.579,0.872h-0.224L28.293,1.97l-0.062-0.092c-0.003-0.006-0.013-0.021-0.028-0.046     l-0.029-0.047h-0.006l-0.029,0.049c-0.017,0.023-0.027,0.038-0.031,0.046l-0.063,0.094l-0.396,0.587h-0.234l0.603-0.872     l-0.554-0.813h0.229l0.374,0.562l0.051,0.079c0.008,0.009,0.016,0.022,0.026,0.039l0.024,0.04h0.006l0.024-0.039     c0.013-0.022,0.021-0.035,0.024-0.04l0.051-0.077l0.369-0.563H28.867z"
   id="path3" />
			<g
   id="g7">
				<path
   d="M30.795,1.676c-0.078-0.063-0.252-0.098-0.527-0.109c-0.291-0.015-0.361-0.042-0.379-0.054      c-0.012-0.007-0.047-0.042-0.047-0.208c0-0.07,0.012-0.161,0.064-0.192c0.033-0.021,0.125-0.046,0.359-0.046      c0.205,0,0.27,0.028,0.291,0.045c0.018,0.015,0.049,0.063,0.049,0.221V1.38h0.285V1.332c0-0.214-0.045-0.352-0.133-0.422      c-0.086-0.066-0.258-0.1-0.523-0.1c-0.262,0-0.434,0.034-0.525,0.106c-0.097,0.074-0.144,0.212-0.144,0.421      c0,0.301,0.163,0.472,0.474,0.492l0.385,0.021c0.125,0.007,0.168,0.032,0.184,0.047c0.014,0.014,0.037,0.054,0.037,0.171      c0,0.193-0.039,0.242-0.057,0.255c-0.021,0.017-0.102,0.046-0.373,0.046c-0.242,0-0.309-0.031-0.324-0.045      c-0.016-0.012-0.053-0.06-0.053-0.243v-0.09h-0.284l0.003,0.123c0,0.204,0.045,0.338,0.138,0.408      c0.091,0.069,0.259,0.103,0.515,0.103c0.293,0,0.479-0.033,0.57-0.102c0.096-0.07,0.141-0.214,0.141-0.439      C30.92,1.875,30.881,1.741,30.795,1.676z"
   id="path4" />
				<polygon
   points="30.986,2.607 32.164,2.607 32.164,2.352 31.271,2.352 31.271,1.817 32.127,1.817 32.127,1.563 31.271,1.563       31.271,1.083 32.164,1.083 32.164,0.828 30.986,0.828     "
   id="polygon4" />
				<path
   d="M33.42,2.097c0,0.121-0.021,0.201-0.063,0.227c-0.025,0.017-0.111,0.046-0.393,0.046s-0.354-0.06-0.371-0.096      c-0.025-0.051-0.055-0.233-0.055-0.811c0-0.247,0.045-0.317,0.07-0.338c0.029-0.021,0.129-0.059,0.469-0.059      c0.188,0,0.246,0.029,0.268,0.046c0.018,0.017,0.049,0.067,0.049,0.228l0.002,0.098h0.285L33.68,1.345      c0-0.207-0.043-0.345-0.129-0.422c-0.084-0.075-0.236-0.112-0.465-0.112c-0.33,0-0.541,0.037-0.646,0.113      c-0.09,0.065-0.146,0.143-0.166,0.229c-0.018,0.08-0.027,0.264-0.027,0.562c0,0.387,0.041,0.63,0.125,0.74      c0.086,0.114,0.275,0.17,0.574,0.17c0.334,0,0.529-0.03,0.619-0.095c0.092-0.067,0.137-0.221,0.137-0.469V1.95h-0.285      L33.42,2.097z"
   id="path5" />
				<polygon
   points="35.047,0.828 33.668,0.828 33.668,1.1 34.217,1.1 34.217,2.607 34.504,2.607 34.504,1.1 35.047,1.1     "
   id="polygon5" />
				<path
   d="M35.783,0.811c-0.289,0-0.482,0.044-0.594,0.134c-0.111,0.091-0.168,0.258-0.168,0.494L35.02,1.718      c0,0.402,0.041,0.647,0.127,0.751c0.088,0.104,0.297,0.156,0.637,0.156c0.344,0,0.553-0.052,0.641-0.158      c0.084-0.104,0.125-0.356,0.125-0.771c0-0.387-0.043-0.625-0.131-0.729C36.328,0.862,36.121,0.811,35.783,0.811z M35.783,1.066      c0.273,0,0.375,0.035,0.412,0.065c0.033,0.027,0.076,0.105,0.076,0.316v0.27c0,0.456-0.039,0.559-0.059,0.581      c-0.016,0.021-0.09,0.07-0.43,0.07s-0.414-0.049-0.43-0.07c-0.018-0.022-0.059-0.125-0.059-0.581s0.041-0.559,0.059-0.581      C35.369,1.115,35.443,1.066,35.783,1.066z"
   id="path6" />
				<path
   d="M37.885,1.801c0.047-0.024,0.084-0.056,0.109-0.094c0.045-0.069,0.066-0.186,0.066-0.352      c0-0.188-0.041-0.326-0.125-0.406c-0.084-0.082-0.221-0.121-0.416-0.121h-0.85v1.779h0.285V1.926h0.59      c0.096,0,0.207,0.027,0.207,0.247v0.435h0.285V2.13C38.037,1.946,37.971,1.85,37.885,1.801z M37.785,1.402      c0,0.106-0.021,0.178-0.063,0.212c-0.029,0.025-0.1,0.056-0.266,0.056h-0.502V1.083h0.568c0.148,0,0.197,0.033,0.215,0.053      C37.756,1.157,37.785,1.22,37.785,1.402z"
   id="path7" />
			</g>
		</g>
		<g
   id="g9">
			<polygon
   fill="#FFFFFF"
   points="23.596,2.09 22.529,3.157 21.809,2.438 21.582,2.667 22.529,3.614 24.002,2.141 23.771,1.91         "
   id="polygon8" />
			<polygon
   fill="#FFFFFF"
   points="22.529,1.125 23.01,1.605 22.625,1.995 22.258,1.629 22.028,1.857 22.032,1.86 22.033,1.859      22.032,1.861 22.625,2.452 23.302,1.771 23.468,1.605 22.523,0.663 21.055,2.141 21.285,2.37 21.336,2.319 21.387,2.269      21.412,2.243 21.463,2.193 21.514,2.142 21.513,2.141    "
   id="polygon9" />
			<path
   fill="#24B1FF"
   d="M24.639,1.365c-0.398-1.088-1.624-1.639-2.736-1.23c-1.111,0.407-1.689,1.62-1.291,2.707     c0.398,1.088,1.623,1.639,2.734,1.23C24.459,3.665,25.037,2.452,24.639,1.365z M21.463,2.193l-0.051,0.05l-0.025,0.025     l-0.051,0.051L21.285,2.37l-0.23-0.229l1.469-1.478l0.944,0.942l-0.166,0.165l-0.677,0.682l-0.593-0.591l0.001-0.002L22.032,1.86     l-0.004-0.003l0.229-0.229l0.367,0.366l0.385-0.39l-0.48-0.48l-1.017,1.016l0.001,0.001L21.463,2.193z M22.529,3.614     l-0.947-0.947l0.227-0.229l0.721,0.72l1.066-1.067l0.176-0.18l0.23,0.23L22.529,3.614z"
   id="path9" />
		</g>
		<g
   id="g13">
			<path
   d="M34.301,3.744v0.187h-0.154V3.744H34.301z"
   id="path10" />
			<path
   d="M35.217,3.581h0.141l0.002,0.053c0,0.208-0.137,0.312-0.408,0.312c-0.174,0-0.289-0.033-0.346-0.099     c-0.055-0.065-0.084-0.201-0.084-0.405c0-0.192,0.029-0.321,0.086-0.391s0.166-0.103,0.326-0.103     c0.158,0,0.264,0.022,0.322,0.069c0.057,0.046,0.086,0.133,0.086,0.261h-0.143V3.253c0-0.075-0.018-0.125-0.055-0.15     c-0.037-0.024-0.111-0.037-0.223-0.037c-0.105,0-0.174,0.023-0.205,0.071c-0.031,0.047-0.045,0.153-0.045,0.317     c0,0.161,0.018,0.264,0.051,0.308c0.035,0.044,0.117,0.065,0.244,0.065c0.107,0,0.178-0.015,0.207-0.043     C35.201,3.756,35.217,3.688,35.217,3.581z"
   id="path11" />
			<path
   d="M35.957,2.948c0.18,0,0.295,0.03,0.348,0.093s0.08,0.197,0.08,0.405s-0.027,0.343-0.08,0.405s-0.168,0.094-0.348,0.094     s-0.295-0.031-0.348-0.094s-0.08-0.197-0.08-0.405s0.027-0.343,0.08-0.405S35.777,2.948,35.957,2.948z M35.957,3.065     c-0.125,0-0.203,0.021-0.234,0.062c-0.029,0.041-0.045,0.147-0.045,0.319c0,0.173,0.016,0.278,0.045,0.32     c0.031,0.04,0.109,0.061,0.234,0.061s0.205-0.021,0.234-0.061c0.029-0.042,0.045-0.147,0.045-0.32     c0-0.172-0.016-0.278-0.045-0.319S36.082,3.065,35.957,3.065z"
   id="path12" />
			<path
   d="M36.605,2.962h0.143l-0.004,0.146l0.004,0.004c0.055-0.108,0.16-0.163,0.316-0.163c0.164,0,0.264,0.055,0.299,0.163     h0.004c0.061-0.108,0.172-0.163,0.332-0.163c0.229,0,0.344,0.116,0.344,0.35v0.633H37.9V3.284c0-0.085-0.014-0.143-0.045-0.173     s-0.088-0.046-0.172-0.046c-0.113,0-0.189,0.021-0.229,0.063c-0.041,0.042-0.061,0.123-0.061,0.241v0.561h-0.141V3.298     l-0.002-0.045c0-0.125-0.072-0.188-0.215-0.188c-0.193,0-0.289,0.104-0.289,0.315v0.55h-0.143V2.962z"
   id="path13" />
		</g>
	</g>
</g>
<g
   id="image"
   style="fill:#bac5c9;stroke:#bac5c9;stroke-width:0.499998;stroke-dasharray:none;stroke-opacity:1;fill-opacity:1"
   transform="matrix(-0.9999993,0,0,1.0000073,19.249993,-1.258752e-5)">
	<g
   id="g15"
   style="fill:#bac5c9;stroke:#bac5c9;stroke-width:0.499998;stroke-dasharray:none;stroke-opacity:1;fill-opacity:1">
		<path
   d="m 12.833,7.766 c 1.011,0 1.833,-0.822 1.833,-1.833 C 14.666,4.922 13.844,4.1 12.833,4.1 11.822,4.1 11,4.922 11,5.933 c 0,1.011 0.822,1.833 1.833,1.833 z m 0,-2.666 c 0.459,0 0.833,0.374 0.833,0.833 0,0.459 -0.374,0.833 -0.833,0.833 C 12.374,6.766 12,6.393 12,5.933 12,5.473 12.374,5.1 12.833,5.1 Z"
   id="path14"
   style="fill:#bac5c9;stroke:#bac5c9;stroke-width:0.499998;stroke-dasharray:none;stroke-opacity:1;fill-opacity:1" />
		<path
   d="M 16.357,1.326 H 2.661 V 1.327 C 1.588,1.367 0.625,2.422 0.625,3.578 V 15.42 c 0,1.146 1.014,1.849 2.036,1.902 l 14.304,0.003 c 0.62,0 1.66,-0.247 1.66,-1.905 V 3.579 c 0,-1.137 -1.123,-2.253 -2.268,-2.253 z m -13.634,1 h 13.634 c 0.593,0 1.268,0.667 1.268,1.252 V 12.35 L 14.246,9.558 11.63,11.772 8.746,8.632 4.645,11.485 C 3.148,12.527 2.209,13.182 1.624,13.617 V 3.579 C 1.625,2.958 2.179,2.326 2.723,2.326 Z m 14.242,14 H 2.786 c -0.563,0 -1.161,-0.317 -1.161,-0.905 V 14.697 C 1.646,14.685 1.662,14.681 1.684,14.668 L 1.677,14.661 c 0.532,-0.385 4.22,-2.954 6.91,-4.823 l 2.949,3.212 2.718,-2.301 3.371,2.784 v 1.888 c 0,0.837 -0.299,0.905 -0.66,0.905 z"
   id="path15"
   style="fill:#bac5c9;stroke:#bac5c9;stroke-width:0.499998;stroke-dasharray:none;stroke-opacity:1;fill-opacity:1" />
	</g>
</g>
<path
   style="fill:#bac5c9;stroke:#bac5c9;stroke-width:0.00953878;stroke-dasharray:none;stroke-opacity:1;fill-opacity:1"
   d="M 6.5400844,6.0737317 C 6.6824671,6.0041257 6.7583208,5.9031078 6.7582746,5.7831563 6.7582096,5.6142216 6.6147357,5.4802741 6.4192173,5.4666122 c -0.1742137,-0.012173 -0.30973,0.057238 -0.3771347,0.1931695 -0.06691,0.1349347 -0.017191,0.2825566 0.1262092,0.3747171 0.059747,0.038399 0.1019107,0.049627 0.2028266,0.054015 0.071462,0.00311 0.1456503,-0.00338 0.168966,-0.014782 z"
   id="path16" /><path
   style="fill:#bac5c9;stroke:#bac5c9;stroke-width:0.00953878;stroke-dasharray:none;stroke-opacity:1;fill-opacity:1"
   d="M 6.6027723,6.0204759 C 6.7043068,5.9453588 6.7375234,5.8842595 6.7375234,5.7726121 6.7375234,5.6026315 6.6113886,5.4948613 6.3995747,5.4838679 6.2895056,5.478155 6.258956,5.4834043 6.1974798,5.5185914 6.0249203,5.6173598 5.9792093,5.8258812 6.1006969,5.9600897 c 0.078124,0.086305 0.1546401,0.1155212 0.3025417,0.1155212 0.1105712,0 0.1336144,-0.00637 0.1995337,-0.055135 z"
   id="path17" /><path
   style="fill:#bac5c9;stroke:#bac5c9;stroke-width:0.00953878;stroke-dasharray:none;stroke-opacity:1;fill-opacity:1"
   d="M 6.5926571,6.9337448 C 6.8752723,6.8960256 7.1480857,6.7771543 7.3591986,6.5997443 7.5227629,6.4622924 7.6335464,6.3095517 7.7076019,6.1193909 7.7827412,5.926448 7.786561,5.6554737 7.7168602,5.4626942 7.5653236,5.0435755 7.1672945,4.7305516 6.6713659,4.6404811 6.5307311,4.614939 6.2406918,4.6148956 6.0930292,4.6403946 6.0302831,4.6512303 5.8907241,4.6957691 5.7829036,4.73937 5.6198213,4.8053178 5.5585954,4.8426035 5.4186876,4.961172 5.1435553,5.19434 5.0125262,5.4560188 5.0125262,5.7723167 c 0,0.2157544 0.027146,0.3155509 0.1396528,0.5134374 0.1669155,0.2935802 0.4945073,0.5273819 0.8570651,0.6116867 0.1835751,0.042686 0.4236571,0.057626 0.583413,0.036304 z M 6.1963585,6.0752652 C 5.943191,5.9664376 5.9213494,5.6350139 6.1586224,5.5027065 c 0.1417274,-0.079028 0.3524795,-0.072429 0.4846553,0.015176 0.1517194,0.1005585 0.1831339,0.336784 0.061608,0.4632967 -0.034061,0.035462 -0.094287,0.079098 -0.13383,0.096967 -0.097569,0.044091 -0.2684902,0.042777 -0.374704,-0.00288 z"
   id="path18" /><path
   style="fill:#bac5c9;stroke:#bac5c9;stroke-width:0.00953878;stroke-dasharray:none;stroke-opacity:1;fill-opacity:1"
   d="M 6.6027723,6.0204759 C 6.7026874,5.9465572 6.7416264,5.8777195 6.7406972,5.7766485 6.7390236,5.5965143 6.594162,5.4802062 6.3714344,5.4802062 c -0.1936106,0 -0.3234782,0.1106907 -0.3363347,0.2866707 -0.00663,0.09059 -1.814e-4,0.1168502 0.041237,0.1682222 0.082291,0.1020728 0.1700009,0.140512 0.3206183,0.140512 0.1176217,0 0.1390543,-0.00574 0.2058197,-0.055135 z"
   id="path19" /><path
   style="fill:#bac5c9;stroke:#bac5c9;stroke-width:0.307249;stroke-dasharray:none;stroke-opacity:1;fill-opacity:1"
   id="path21"
   d="M 6.3594227,5.6003314 C 6.2920997,5.6948384 6.2730787,5.8073862 6.251062,5.9142597 6.24021,6.0022017 6.208754,6.0940416 6.237345,6.1815284 c 0.00462,0.00605 0.00772,0.0132 0.013931,0.01815 0.040293,0.032105 0.1094285,0.026997 0.1591715,0.022525 0.064306,-0.012699 0.128012,-0.031215 0.1884921,-0.053774 -0.01209,0.0055 -0.022533,0.016813 -0.036277,0.016507 -0.011829,-2.639e-4 0.020177,-0.010505 0.029489,-0.016659 0.01128,-0.00745 0.021951,-0.015573 0.032146,-0.024066 0.045595,-0.038005 0.065879,-0.080399 0.08937,-0.1299541 0.026764,-0.063133 0.041512,-0.1282499 0.048474,-0.1947655 0,0 0.065544,-0.027485 0.065544,-0.027485 v 0 c -0.00808,0.067225 -0.023397,0.1330421 -0.049685,0.1971179 -0.017499,0.03897 -0.026958,0.067589 -0.054599,0.1020053 -0.043707,0.054425 -0.1180742,0.084645 -0.1828521,0.1162156 -0.060999,0.021804 -0.1245489,0.04088 -0.1894901,0.051952 -0.052899,0.00381 -0.1228507,0.00693 -0.1643282,-0.027919 -0.00656,-0.00553 -0.00981,-0.013292 -0.014721,-0.019939 -0.028217,-0.089176 0.00502,-0.1820562 0.016542,-0.2714758 0.022072,-0.1061385 0.039214,-0.2180925 0.1016155,-0.3137686 z" /><path
   style="fill:#bac5c9;stroke:#bac5c9;stroke-width:0.307249;stroke-dasharray:none;stroke-opacity:1;fill-opacity:1"
   id="path22"
   d="m 6.3433061,5.2996122 c -0.011046,0.044318 -0.023926,0.088301 -0.035487,0.1325447 -0.011628,0.054225 -0.014399,0.09637 -0.058964,0.1390407 -0.034623,0.025144 -0.072328,0.046941 -0.1085695,0.07049 -0.00753,0.00496 -0.015062,0.00992 -0.022587,0.014883 0,0 -0.069216,0.023355 -0.069216,0.023355 v 0 c 0.00741,-0.00496 0.014821,-0.00991 0.022225,-0.014872 0.036531,-0.023176 0.072679,-0.04635 0.1091426,-0.069514 0.047496,-0.040983 0.049853,-0.081901 0.061508,-0.1363469 0.01124,-0.043957 0.023591,-0.087692 0.033304,-0.1318742 z" /><path
   style="fill:#bac5c9;stroke:#bac5c9;stroke-width:0.307249;stroke-dasharray:none;stroke-opacity:1;fill-opacity:1"
   id="path23"
   d="M 6.7464336,5.468932 C 6.6620889,5.5764362 6.5562285,5.6697044 6.4462678,5.7585714 6.372458,5.8150158 6.2958331,5.8695871 6.2116644,5.9148948 c -0.040648,0.021882 -0.1104192,0.052329 -0.1449901,0.068118 -0.04356,0.018377 -0.088553,0.042348 -0.1385878,0.032283 -0.048065,-0.010818 -0.063723,-0.037883 -0.086896,-0.07182 -0.04267,-0.064103 -0.061414,-0.1374317 -0.080056,-0.2085862 0,0 0.064119,-0.028994 0.064119,-0.028994 v 0 c 0.017834,0.070776 0.037221,0.1428333 0.080775,0.2060362 0.021248,0.030843 0.039336,0.059007 0.084022,0.067006 0.0484,0.00669 0.091797,-0.017607 0.1339492,-0.034494 -0.00807,0.00482 -0.033304,0.017726 -0.024207,0.014456 0.015973,-0.00574 0.030379,-0.014213 0.045107,-0.021968 0.085257,-0.044903 0.162685,-0.099602 0.2372781,-0.1561297 0.1087844,-0.08758 0.2145257,-0.1792395 0.2958211,-0.2866406 z" /><path
   style="fill:#bac5c9;stroke:#bac5c9;stroke-width:0.307249;stroke-dasharray:none;stroke-opacity:1;fill-opacity:1"
   id="path24"
   d="m 5.9473241,5.5839871 c -0.075689,0.00703 -0.1473767,0.025947 -0.2181527,0.048706 -0.060617,0.021295 -0.1219851,0.040466 -0.1713826,0.077788 0,0 0.063442,0.033143 0.063442,0.033143 v 0 c 0.048313,-0.036839 0.1087523,-0.055911 0.168332,-0.076685 0.070909,-0.022111 0.1431881,-0.041167 0.219189,-0.045346 z" /></svg>
